<svg xmlns="http://www.w3.org/2000/svg" width="811.713" height="1532.105" viewBox="0 0 811.713 1532.105">
  <g id="Group_83" data-name="Group 83" transform="translate(-1408 -2308.866)">
    <path id="Tracé_1140" data-name="Tracé 1140" d="M803.064,508.444l.143-154.091L734.478,334.8a310.621,310.621,0,0,0-19.015-45.853l28.452-56.351L636.584,125.062,580.21,153.421c-1.229-.631-2.526-1.122-3.755-1.745-13.217-6.8-26.676-13.122-40.524-18.574L516.044,63.553H360.732l-19.643,68.934a314.773,314.773,0,0,0-46.218,19.152L238.04,123.165,129.779,230.884,158.4,287.412a311.034,311.034,0,0,0-19.22,45.873L69.884,352.9V507.409l69.3,19.545a310.224,310.224,0,0,0,19.208,45.96l-28.623,56.528L238.059,737.163l56.8-28.488A313.685,313.685,0,0,0,341,727.757l19.643,68.934h155.41l19.739-68.934A313.119,313.119,0,0,0,581.9,708.6l56.845,28.474L743.556,630.07l-28.343-56.4a310.7,310.7,0,0,0,19.1-45.741ZM679.574,473.768l-4.8,18.647a243.005,243.005,0,0,1-26.328,63.353l-6.5,10.961-1.4,1.835.132.3-1.594,2.686,22.75,45.255-11.323,11.3c.123.093.233.2.356.295l-25.3,26.757-45.6-22.851-15.914,9.367a245.878,245.878,0,0,1-63.981,26.446l-18.785,4.8L465.1,729.443H411.892L395.72,672.915l-18.8-4.8a245.976,245.976,0,0,1-63.981-26.446l-15.917-9.367-45.615,22.851L212.245,616.2l22.974-45.359-9.415-15.83a243.143,243.143,0,0,1-26.586-63.656l-4.821-18.7-56.828-16.088V403.65l56.828-16.1,4.821-18.7A243.069,243.069,0,0,1,225.7,305.3l9.418-15.833-22.971-45.348,38.187-37.993c.168.533.3,1.092.471,1.625l1.277-1.277L297.3,229.3l15.8-9.325a243.316,243.316,0,0,1,63.51-26.314l18.642-4.771,16.11-56.362,52.779.051,16,56.4,18.647,4.8A243.379,243.379,0,0,1,545.918,211.4c.923.471,1.858.932,2.778,1.417,3.275,1.684,6.491,3.48,9.693,5.307,4.209,2.416,8.438,4.827,12.541,7.442l.079-.135L578,229.573l45.272-22.747,38.81,38.885-22.837,45.213,9.328,15.8a243.394,243.394,0,0,1,26.314,63.51l4.771,18.656,56.362,16.094-.051,52.779Z" transform="translate(1338.116 3044.281)" fill="#fff" opacity="0.117"/>
    <path id="Tracé_1140-2" data-name="Tracé 1140" d="M628.871,402.744l.109-117.481-52.4-14.91a236.837,236.837,0,0,0-14.5-34.959l21.692-42.963-81.831-81.983-42.98,21.622c-.937-.481-1.926-.856-2.863-1.331-10.077-5.182-20.338-10-30.9-14.161L410.042,63.553H291.631l-14.976,52.556a239.992,239.992,0,0,0-35.237,14.6L198.088,109l-82.539,82.126,21.823,43.1A237.138,237.138,0,0,0,122.719,269.2L69.884,284.157v117.8l52.834,14.9a236.522,236.522,0,0,0,14.645,35.04l-21.823,43.1L198.1,577.123l43.305-21.72a239.157,239.157,0,0,0,35.18,14.548l14.976,52.556H410.051L425.1,569.951a238.725,238.725,0,0,0,35.156-14.6L503.6,577.057,583.5,495.474l-21.609-43A236.875,236.875,0,0,0,576.454,417.6Zm-94.15-26.438-3.661,14.217a185.27,185.27,0,0,1-20.073,48.3l-4.953,8.357-1.07,1.4.1.227-1.215,2.048,17.345,34.5-8.633,8.618c.094.071.178.156.272.225l-19.287,20.4L458.78,497.179l-12.133,7.142a187.461,187.461,0,0,1-48.78,20.163l-14.322,3.656-12.343,43.1H330.636l-12.33-43.1-14.334-3.656a187.533,187.533,0,0,1-48.78-20.163l-12.135-7.142L208.279,514.6l-29.856-29.7,17.516-34.583-7.178-12.069a185.376,185.376,0,0,1-20.269-48.532l-3.676-14.26-43.327-12.266V322.848l43.327-12.276,3.676-14.26a185.319,185.319,0,0,1,20.188-48.451l7.18-12.071-17.514-34.574,29.114-28.966c.128.407.229.832.359,1.239l.973-.973,34.473,17.409,12.043-7.109a185.508,185.508,0,0,1,48.421-20.062l14.213-3.637,12.283-42.972,40.239.039,12.2,43,14.217,3.659a185.557,185.557,0,0,1,35.943,13.427c.7.359,1.416.71,2.118,1.08,2.5,1.284,4.949,2.653,7.39,4.046,3.209,1.842,6.433,3.68,9.561,5.674l.06-.1,5.332,3.16L491.8,172.786l29.589,29.647L503.974,236.9l7.112,12.045a185.567,185.567,0,0,1,20.062,48.421l3.637,14.223,42.971,12.27-.039,40.239Z" transform="matrix(0.966, -0.259, 0.259, 0.966, 1451.049, 2410.271)" fill="#fff" opacity="0.066"/>
  </g>
</svg>
